<?xml version="1.0"?>
<svg xmlns="http://www.w3.org/2000/svg" xmlns:xlink="http://www.w3.org/1999/xlink" xmlns:svgjs="http://svgjs.com/svgjs" version="1.1" width="512" height="512" x="0" y="0" viewBox="0 0 512 512" style="enable-background:new 0 0 512 512" xml:space="preserve" class=""><g><g xmlns="http://www.w3.org/2000/svg"><g><circle cx="256" cy="256" fill="#dc3545" r="256" data-original="#424242" style="" class=""/></g><path d="m283.589 510.517c110.035-11.793 199.195-93.297 222.46-199.481l-165.067-165.068s-135.046-3.732-183.826 76.498l71.883 72.065-64.011 98.169z" fill="#dc3545" data-original="#232323" style="" class=""/><g><path d="m362.478 392.7h-197.45v-66.649l126.808-96.003c16.08-12.174 12.205-29.149 10.635-34.062-1.513-4.732-7.953-20.22-27.306-20.785-.431-.012-1.19-.019-1.494-.021h-22.422c-33.029 0-35.595 36.193-35.595 47.286h-58.497c0-62.284 38.692-105.783 94.092-105.783l22.753.001s1.912.017 2.864.044c37.826 1.105 69.745 25.224 81.325 61.445 11.728 36.688-.458 75.356-31.045 98.513l-75.972 57.517h111.305v58.497z" fill="#f8fffb" data-original="#f8fffb" style="" class=""/></g><g><g><path d="m327.144 276.684-67.271 50.933v-73.373l31.961-24.196c16.077-12.173 12.204-29.148 10.64-34.059-1.513-4.74-7.958-20.222-27.312-20.786-.434-.01-1.19-.02-1.493-.02h-13.797v-58.497h14.13s1.906.02 2.864.04c37.821 1.109 69.742 25.224 81.321 61.452 11.73 36.681-.453 75.35-31.043 98.506z" fill="#ffffff" data-original="#d8d8d8" style="" class=""/></g><path d="m259.873 334.203h102.602v58.497h-102.602z" fill="#ffffff" data-original="#d8d8d8" style="" class=""/></g></g></g></svg>
