<?xml version="1.0"?>
<svg xmlns="http://www.w3.org/2000/svg" xmlns:xlink="http://www.w3.org/1999/xlink" xmlns:svgjs="http://svgjs.com/svgjs" version="1.1" width="512" height="512" x="0" y="0" viewBox="0 0 512 512" style="enable-background:new 0 0 512 512" xml:space="preserve" class=""><g><g xmlns="http://www.w3.org/2000/svg"><g><g><circle cx="256" cy="256" fill="#dc3545" r="256" data-original="#07e5ca" style="" class=""/></g></g><path d="m258.159 342.399-33.451-29.669-36.431 50.377 138.876 138.863c86.085-24.859 153.512-93.679 176.406-180.58l-176.549-176.547-161.55 44.471 70.927 70.774-3.625 16.135 55.714 53.88c0-.001-19.143 14.362-30.317 12.296z" fill="#dc3545" data-original="#00b59b" style="" class=""/><path d="m327.01 144.843c-16.043-17.879-42.838-28.553-71.677-28.553-5.844 0-11.706.537-17.422 1.596l-1.761.325c-17.548 3.242-33.445 11.308-45.975 23.324-12.277 11.782-20.479 26.58-23.72 42.793l-.996 4.985 59.247 4.483 1.205-3.114c3.434-8.87 11.712-15.517 21.603-17.346l1.761-.325c11.174-2.064 22.649 1.705 29.953 9.845 9.685 10.789 8.718 28.122-2.113 37.851-5.246 4.714-31.07 10.157-39.66 9.799l-4.693-.201v45.918l4.693-.201c8.647-.363 34.416 5.086 39.661 9.799 10.83 9.729 11.797 27.062 2.111 37.852-7.303 8.139-18.779 11.909-29.953 9.844l-1.759-.325c-9.892-1.829-18.17-8.476-21.604-17.346l-1.205-3.114-59.247 4.483.996 4.985c3.24 16.213 11.442 31.011 23.721 42.794 12.528 12.016 28.426 20.081 45.974 23.323l1.759.325c5.718 1.059 11.58 1.596 17.424 1.596 28.839 0 55.634-10.674 71.676-28.552 27.032-30.122 25.758-76.953-2.307-108.422 28.065-31.469 29.34-78.3 2.308-108.421z" fill="#f8fffb" data-original="#f8fffb" style="" class=""/><path d="m324.7 253.26c28.07 31.47 29.34 78.3 2.31 108.43-15.92 17.73-42.42 28.38-71.01 28.54v-56.17c8.88-.17 17.4-3.88 23.23-10.39 9.68-10.79 8.72-28.12-2.11-37.85-2.9-2.6-12.05-5.43-21.12-7.38v-50.36c9.07-1.95 18.22-4.77 21.12-7.37 10.83-9.73 11.79-27.06 2.11-37.85-5.83-6.51-14.35-10.22-23.23-10.39v-56.17c28.59.16 55.09 10.8 71.01 28.54 27.03 30.12 25.76 76.95-2.31 108.42z" fill="#ffffff" data-original="#d8d8d8" style="" class=""/></g></g></svg>
