<?xml version="1.0"?>
<svg xmlns="http://www.w3.org/2000/svg" xmlns:xlink="http://www.w3.org/1999/xlink" xmlns:svgjs="http://svgjs.com/svgjs" version="1.1" width="512" height="512" x="0" y="0" viewBox="0 0 512 512" style="enable-background:new 0 0 512 512" xml:space="preserve" class=""><g><g xmlns="http://www.w3.org/2000/svg"><g><circle cx="256" cy="256" fill="#dc3545" r="256" data-original="#07e5ca" style="" class=""/></g><path d="m317.051 504.655c105.121-25.723 184.76-116.35 194.029-227.003l-158.352-158.352-153.122 16.367-41.036 133.153 62.938 61.271-38.738 40.699z" fill="#dc3545" data-original="#00b59b" style="" class=""/><g><path d="m234.09 177.3-5.47 32.06 23.09-1.09c26.3-1.25 52.29 6.62 71.31 24.83 36.68 35.12 39.8 93.07 7.1 131.92-19.02 22.6-46.89 35.27-75.8 35.27-6.36 0-12.77-.61-19.15-1.87l-2.03-.4c-19.24-3.79-36.66-13.21-50.37-27.23-13.41-13.72-22.33-30.88-25.86-49.71l58.64-4.73c4.55 12.53 15.47 22.14 28.81 24.77l2.03.4c14.65 2.89 29.73-2.42 39.35-13.85 13.06-15.51 11.82-38.65-2.83-52.68-7.6-7.28-17.98-11.15-28.48-10.67l-95.86 4.5 27.08-149.52h167.078v58h-118.638z" fill="#f8fffb" data-original="#f8fffb" style=""/></g><g fill="#d8d8d8"><path d="m323.02 233.1c36.68 35.12 39.8 93.07 7.1 131.92-18.65 22.16-45.81 34.78-74.12 35.25v-58.01c11.37-.46 22.22-5.66 29.74-14.59 13.06-15.51 11.82-38.65-2.83-52.68-7.22-6.92-16.95-10.76-26.91-10.71v-56.13c24.82-.24 49.03 7.73 67.02 24.95z" fill="#ffffff" data-original="#d8d8d8" style="" class=""/><path d="m256 119.3h96.73v58h-96.73z" fill="#ffffff" data-original="#d8d8d8" style="" class=""/></g></g></g></svg>
